<svg width="32" id="Capa_1" style="enable-background:new 0 0 296.582 296.582" xmlns="http://www.w3.org/2000/svg" xml:space="preserve" viewBox="0 0 296.582 296.582" version="1.1" y="0px" x="0px" xmlns:xlink="http://www.w3.org/1999/xlink">
    <rect height="25.304" width="0" y="207.26" x="172.14" fill="none"/>
    <path d="m114.05 137.84c-0.358 0.879-11.423 28.018-11.524 28.198 0.103-0.182 0.201-0.367 0.282-0.566l11.24-27.63z" fill="none"/>
    <path d="m143.56 173.1l7.029 16.984c3.159-7.765 6.318-15.531 9.477-23.296-2.28-5.603-4.559-11.207-6.839-16.81-2.31 5.56-9.58 22.98-9.67 23.13z" fill="#FDBD1D"/>
    <path d="m167.53 148.45c1.351-3.322 2.703-6.644 4.054-9.966h-8.177l4.13 9.97z" fill="#FDBD1D"/>
    <path d="m167.37 231.63l9.535-23.439c-0.001-0.002-3.412-8.393-6.591-16.212-2.109 5.091-9.549 23.042-9.637 23.197l6.7 16.45z" fill="#FDBD1D"/>
    <path d="m178.08 172.53c-0.081 0.199-0.179 0.385-0.282 0.567l6.693 16.453 9.563-23.509c-0.056-0.1-3.501-8.534-6.61-16.155l-9.36 22.65z" fill="#FDBD1D"/>
    <path d="m65.763 110.92c-0.014-0.118-0.031-0.235-0.041-0.354 0.011 0.11 0.028 0.23 0.041 0.35z" fill="#FDBD1D"/>
    <path d="m66.572 114.17c-0.026-0.063-0.045-0.13-0.069-0.194 0.024 0.06 0.043 0.12 0.069 0.19z" fill="#FDBD1D"/>
    <path d="m148.29 9.88c0.644 0 1.285 0.01 1.925 0.027-0.64-0.018-1.28-0.027-1.93-0.027z" fill="#FDBD1D"/>
    <path d="m66.219 113.14c-0.036-0.12-0.067-0.242-0.1-0.363 0.033 0.12 0.064 0.24 0.1 0.36z" fill="#FDBD1D"/>
    <path d="m65.948 112.07c-0.027-0.13-0.053-0.261-0.076-0.392 0.023 0.13 0.049 0.26 0.076 0.39z" fill="#FDBD1D"/>
    <path d="m154.81 10.191c0.368 0.035 0.737 0.069 1.104 0.109-0.36-0.04-0.73-0.074-1.1-0.109z" fill="#FDBD1D"/>
    <path d="m152.87 10.036c0.386 0.026 0.771 0.05 1.155 0.081-0.38-0.031-0.76-0.056-1.15-0.081z" fill="#FDBD1D"/>
    <path d="m150.84 9.932c0.431 0.016 0.862 0.031 1.291 0.055-0.43-0.024-0.86-0.04-1.29-0.055z" fill="#FDBD1D"/>
    <path d="m67.75 116.4c-0.083-0.125-0.165-0.252-0.243-0.381 0.078 0.13 0.16 0.26 0.243 0.38z" fill="#FDBD1D"/>
    <path d="m70.104 119.02c-0.13-0.107-0.263-0.212-0.388-0.325 0.125 0.11 0.258 0.22 0.388 0.32z" fill="#FDBD1D"/>
    <path d="m70.931 119.64c-0.148-0.101-0.294-0.203-0.437-0.31 0.143 0.11 0.289 0.21 0.437 0.31z" fill="#FDBD1D"/>
    <path d="m71.791 120.18c-0.159-0.088-0.314-0.183-0.469-0.279 0.155 0.1 0.31 0.19 0.469 0.28z" fill="#FDBD1D"/>
    <path d="m72.692 120.63c-0.167-0.074-0.328-0.159-0.491-0.241 0.163 0.08 0.324 0.17 0.491 0.24z" fill="#FDBD1D"/>
    <path d="m69.043 118.04c-0.099-0.104-0.19-0.217-0.285-0.325 0.094 0.11 0.186 0.22 0.285 0.32z" fill="#FDBD1D"/>
    <path d="m67.183 115.46c-0.063-0.115-0.128-0.228-0.186-0.346 0.059 0.12 0.124 0.23 0.186 0.35z" fill="#FDBD1D"/>
    <path d="m156.71 10.396c0.36 0.044 0.72 0.088 1.079 0.137-0.36-0.049-0.72-0.093-1.08-0.137z" fill="#FDBD1D"/>
    <path d="m68.367 117.26c-0.096-0.121-0.187-0.246-0.279-0.37 0.093 0.13 0.183 0.25 0.279 0.37z" fill="#FDBD1D"/>
    <path d="m196.56 29.241c0.393 0.369 0.784 0.743 1.17 1.121-0.39-0.379-0.78-0.752-1.17-1.121z" fill="#FDBD1D"/>
    <path d="m177.97 16.552c3.38 1.598 6.623 3.46 9.705 5.56-3.09-2.1-6.33-3.962-9.71-5.56z" fill="#FDBD1D"/>
    <path d="m192.33 25.569c0.417 0.335 0.83 0.675 1.24 1.02-0.41-0.346-0.82-0.685-1.24-1.02z" fill="#FDBD1D"/>
    <path d="m193.78 26.761c0.406 0.344 0.809 0.693 1.207 1.045-0.41-0.352-0.81-0.701-1.21-1.045z" fill="#FDBD1D"/>
    <path d="m187.74 22.157c0.487 0.333 0.97 0.671 1.449 1.016-0.48-0.345-0.97-0.683-1.45-1.016z" fill="#FDBD1D"/>
    <path d="m189.32 23.271c0.454 0.328 0.906 0.662 1.352 1-0.44-0.339-0.9-0.672-1.35-1z" fill="#FDBD1D"/>
    <path d="m200.48 33.203c0.4 0.436 0.796 0.876 1.187 1.321-0.39-0.446-0.79-0.886-1.19-1.321z" fill="#FDBD1D"/>
    <path d="m158.59 10.651c0.354 0.053 0.709 0.107 1.061 0.165-0.35-0.058-0.7-0.111-1.06-0.165z" fill="#FDBD1D"/>
    <path d="m199.21 31.849c0.395 0.409 0.785 0.822 1.171 1.24-0.39-0.418-0.78-0.832-1.17-1.24z" fill="#FDBD1D"/>
    <path d="m195.18 27.984c0.399 0.356 0.795 0.716 1.186 1.081-0.39-0.365-0.79-0.725-1.19-1.081z" fill="#FDBD1D"/>
    <path d="m197.9 30.529c0.393 0.387 0.782 0.779 1.167 1.175-0.39-0.395-0.78-0.787-1.17-1.175z" fill="#FDBD1D"/>
    <path d="m223.66 98.137c-1.989-0.822-3.216-2.837-3.035-4.981 0.206-2.447 0.306-4.697 0.306-6.878 0-19.928-7.295-38.094-19.219-51.711-12.588-11.004-28.751-17.631-46.36-17.631-40.054 0-72.64 34.272-72.64 76.398 0 2.186 0.101 4.435 0.307 6.877 0.182 2.145-1.046 4.16-3.035 4.982-4.407 1.822-7.255 6.255-7.255 11.293 0 1.582 0.293 3.09 0.811 4.477-0.019-0.007-0.037-0.015-0.056-0.022 1.108 0.388 2.288 0.605 3.516 0.605h3.882c0.073-0.003 0.145-0.013 0.218-0.013h134.38c0.073 0 0.144 0.011 0.217 0.013h3.886c6.246 0 11.329-5.435 11.329-12.117-0.01-5.03-2.86-9.461-7.26-11.283zm-19.8-26.486c-0.433 0.118-0.868 0.174-1.297 0.174-2.175 0-4.167-1.447-4.764-3.647-8.465-31.186-34.804-36.512-35.921-36.723-2.673-0.506-4.444-3.08-3.948-5.755 0.495-2.675 3.049-4.45 5.728-3.963 1.364 0.248 33.534 6.486 43.676 43.854 0.71 2.632-0.85 5.345-3.48 6.06z" fill="#FDA6B6"/>
    <path d="m190.85 24.407c0.432 0.33 0.861 0.664 1.285 1.003-0.43-0.339-0.86-0.673-1.29-1.003z" fill="#FDBD1D"/>
    <path d="m167.68 12.649c0.364 0.106 0.726 0.216 1.087 0.328-0.36-0.112-0.72-0.222-1.09-0.328z" fill="#FDBD1D"/>
    <path d="m165.9 12.155c0.358 0.094 0.715 0.191 1.072 0.291-0.35-0.099-0.71-0.197-1.07-0.291z" fill="#FDBD1D"/>
    <path d="m164.1 11.708c0.355 0.083 0.709 0.168 1.062 0.257-0.35-0.089-0.7-0.174-1.06-0.257z" fill="#FDBD1D"/>
    <path d="m160.45 10.955c0.353 0.063 0.706 0.127 1.057 0.195-0.36-0.068-0.71-0.132-1.06-0.195z" fill="#FDBD1D"/>
    <path d="m162.28 11.308c0.353 0.073 0.706 0.147 1.058 0.225-0.35-0.078-0.7-0.152-1.06-0.225z" fill="#FDBD1D"/>
    <path d="m174.62 15.076c0.434 0.178 0.864 0.362 1.293 0.548-0.43-0.186-0.86-0.37-1.29-0.548z" fill="#FDBD1D"/>
    <path d="m176.3 15.793c0.484 0.214 0.965 0.434 1.444 0.659-0.47-0.225-0.95-0.446-1.44-0.659z" fill="#FDBD1D"/>
    <path d="m172.92 14.403c0.403 0.154 0.804 0.312 1.205 0.473-0.4-0.161-0.8-0.32-1.2-0.473z" fill="#FDBD1D"/>
    <path d="m171.19 13.773c0.385 0.135 0.768 0.275 1.15 0.416-0.38-0.141-0.76-0.281-1.15-0.416z" fill="#FDBD1D"/>
    <path d="m169.45 13.188c0.372 0.12 0.743 0.244 1.113 0.369-0.37-0.125-0.74-0.249-1.11-0.369z" fill="#FDBD1D"/>
    <polygon points="201.45 147.85 205.26 138.48 197.64 138.48" fill="#FDBD1D"/>
    <polygon points="190.58 131.43 199.36 153 199.36 153" fill="#FDBD1D"/>
    <polygon points="99.313 147.85 103.13 138.48 95.501 138.48" fill="#FDBD1D"/>
    <path d="m119.68 208.15c-0.005 0.011-0.009 0.021-0.013 0.032l11.782 28.96c0.004-0.01 0.009-0.021 0.013-0.032l-11.78-28.96z" fill="#FDBD1D"/>
    <path d="m126.73 215.17l6.831 16.79c3.133-7.701 6.266-15.402 9.399-23.104l-6.804-16.726c-0.01 0-9.33 22.86-9.43 23.04z" fill="#FDBD1D"/>
    <path d="m131.19 179.93l-0.014-0.034c-3.788 9.313-7.576 18.626-11.365 27.938 0.048-0.094 0.101-0.184 0.142-0.284l11.23-27.63z" fill="#FDBD1D"/>
    <path d="m143.84 257.25l6.555 16.112 9.399-23.104-6.528-16.048c-0.31 0.74-9.33 22.86-9.43 23.04z" fill="#FDBD1D"/>
    <path d="m148.29 221.97c-0.053 0.13-0.105 0.259-0.158 0.389 0.088-0.182 0.146-0.304 0.171-0.356l-0.01-0.03z" fill="#FDBD1D"/>
    <path d="m133.33 148.38c1.342-3.3 2.685-6.6 4.027-9.9h-8.174l4.14 9.9z" fill="#FDBD1D"/>
    <path d="m114.06 137.82l4.963 12.203s-8.134 19.437-9.439 23.074l6.845 16.827c-0.697 1.715-1.395 3.43-2.092 5.145 3.835-9.428 7.669-18.856 11.505-28.284l-11.78-28.96z" fill="#FDBD1D"/>
    <path d="m163.66 21.736c-2.679-0.487-5.233 1.287-5.728 3.963-0.496 2.675 1.275 5.249 3.948 5.755 1.117 0.212 27.456 5.537 35.921 36.723 0.597 2.2 2.589 3.647 4.764 3.647 0.429 0 0.864-0.056 1.297-0.174 2.633-0.715 4.188-3.428 3.473-6.061-10.14-37.367-42.31-43.605-43.67-43.853z" fill="#B74B00"/>
    <path d="m230.69 90.696c0.078-1.513 0.116-2.976 0.116-4.419 0-47.573-37.02-86.277-82.52-86.277-45.501 0-82.52 38.704-82.52 86.278 0 1.444 0.039 2.908 0.117 4.419-6.232 3.95-10.1 10.96-10.1 18.732 0 12.129 9.514 21.996 21.208 21.996h0.781l65.937 162.08c0.757 1.861 2.566 3.078 4.575 3.078s3.818-1.217 4.575-3.078l65.94-162.08h0.784c11.695 0 21.208-9.867 21.208-21.996 0-7.77-3.87-14.784-10.1-18.734zm-142.25 40.734h17.553l-2.871 7.057-3.813 9.37-2.093 5.145-8.78-21.57zm14.086 34.61c0.101-0.179 11.166-27.319 11.524-28.198 0.006-0.015 0.01-0.023 0.01-0.023l11.782 28.965c-3.835 9.428-7.669 18.857-11.505 28.284l-11.81-29.02zm47.87 107.32l-2.105 5.175-11.507-28.284c3.783-9.297 7.565-18.595 11.347-27.891 0.053-0.13 0.105-0.259 0.158-0.389l0.013 0.033 4.965 12.204 6.528 16.048-9.41 23.1zm34.09-83.81l-2.245 5.518-1.113-2.737c-3.464-8.516-6.928-17.032-10.392-25.547 3.927-9.655 7.856-19.309 11.782-28.964 0 0 2.345 5.754 4.921 12.065 3.11 7.621 6.555 16.055 6.61 16.155l-9.56 23.51zm-12.9-51.07c-1.351 3.322-2.703 6.644-4.054 9.966-0.709 1.743-1.418 3.487-2.127 5.23-3.017-7.417-6.035-14.835-9.053-22.253h18.105c-0.96 2.35-1.92 4.7-2.87 7.05zm-11.52 28.31c-3.159 7.765-6.318 15.531-9.477 23.296-0.768 1.889-1.537 3.778-2.305 5.667l-11.781-28.964c3.927-9.654 7.854-19.308 11.78-28.962 1.648 4.051 3.296 8.102 4.944 12.153 2.29 5.59 4.57 11.19 6.85 16.8zm-22.71-28.31c-1.342 3.3-2.684 6.6-4.027 9.9l-2.154 5.295-9.051-22.251h18.101c-0.96 2.35-1.92 4.7-2.87 7.05zm-17.69 69.7c0.005-0.011 0.009-0.022 0.013-0.032 0.042-0.104 0.085-0.209 0.127-0.314 3.789-9.312 7.577-18.625 11.365-27.938l0.014 0.034 4.964 12.203 6.804 16.726c-3.133 7.701-6.266 15.402-9.399 23.104-0.698 1.715-1.395 3.43-2.093 5.146-0.004 0.011-0.009 0.021-0.013 0.032l-11.78-28.96zm45.73-28.28c0.865 2.126 2.839 6.981 4.912 12.079 3.179 7.818 6.59 16.209 6.591 16.212l-9.535 23.439-2.245 5.518-11.505-28.285m36.96-77.43h17.55l-2.871 7.057-3.811 9.37-2.092 5.144-0.001 0.002-8.78-21.57zm29-9.88h-3.886c-0.073-0.003-0.144-0.013-0.217-0.013h-134.37c-0.073 0-0.145 0.011-0.218 0.013h-3.882c-1.228 0-2.408-0.217-3.516-0.605-0.267-0.093-0.53-0.195-0.788-0.309-0.167-0.074-0.328-0.159-0.491-0.241-0.138-0.069-0.276-0.137-0.41-0.212-0.159-0.089-0.314-0.183-0.469-0.279-0.132-0.083-0.263-0.167-0.392-0.255-0.148-0.101-0.294-0.202-0.437-0.31-0.133-0.1-0.261-0.206-0.39-0.312-0.13-0.107-0.263-0.212-0.388-0.325-0.232-0.209-0.457-0.427-0.673-0.654-0.099-0.104-0.19-0.217-0.285-0.325-0.133-0.151-0.265-0.301-0.39-0.459-0.096-0.121-0.187-0.246-0.279-0.37-0.116-0.159-0.23-0.32-0.339-0.485-0.083-0.125-0.165-0.252-0.243-0.381-0.113-0.185-0.22-0.376-0.323-0.568-0.062-0.115-0.128-0.228-0.186-0.346-0.153-0.307-0.297-0.621-0.426-0.943-0.026-0.063-0.045-0.13-0.069-0.194-0.103-0.271-0.199-0.546-0.284-0.827-0.036-0.12-0.067-0.242-0.1-0.363-0.063-0.234-0.121-0.471-0.171-0.711-0.027-0.13-0.053-0.261-0.076-0.392-0.044-0.251-0.079-0.504-0.108-0.76-0.014-0.118-0.031-0.235-0.041-0.354-0.033-0.374-0.054-0.752-0.054-1.134 0-5.038 2.848-9.471 7.255-11.293 1.989-0.823 3.216-2.838 3.034-4.983-0.207-2.441-0.307-4.69-0.307-6.876 0-42.126 32.586-76.398 72.64-76.398 0.644 0 1.285 0.01 1.925 0.027 0.208 0.006 0.413 0.018 0.62 0.025 0.431 0.016 0.862 0.031 1.291 0.055 0.25 0.014 0.497 0.033 0.745 0.05 0.386 0.026 0.771 0.05 1.155 0.081 0.263 0.022 0.524 0.049 0.785 0.074 0.368 0.035 0.737 0.069 1.104 0.109 0.266 0.03 0.531 0.064 0.796 0.096 0.36 0.044 0.72 0.088 1.079 0.137 0.267 0.037 0.534 0.078 0.801 0.118 0.354 0.053 0.709 0.107 1.061 0.165 0.265 0.044 0.529 0.092 0.793 0.138 0.353 0.063 0.706 0.127 1.057 0.195 0.261 0.05 0.52 0.104 0.779 0.157 0.353 0.073 0.706 0.147 1.058 0.225 0.254 0.057 0.508 0.116 0.761 0.175 0.355 0.083 0.709 0.168 1.062 0.257 0.247 0.062 0.493 0.125 0.738 0.19 0.358 0.094 0.715 0.191 1.072 0.291 0.237 0.067 0.474 0.134 0.711 0.203 0.364 0.106 0.726 0.216 1.087 0.328 0.226 0.07 0.451 0.14 0.676 0.212 0.372 0.12 0.743 0.244 1.113 0.369 0.21 0.072 0.421 0.142 0.631 0.216 0.385 0.135 0.768 0.275 1.15 0.416 0.192 0.071 0.384 0.141 0.575 0.214 0.403 0.154 0.804 0.312 1.205 0.473 0.166 0.067 0.333 0.132 0.499 0.2 0.434 0.178 0.864 0.362 1.293 0.548 0.131 0.057 0.262 0.111 0.392 0.168 0.484 0.214 0.965 0.434 1.444 0.659 0.073 0.034 0.147 0.067 0.219 0.101 3.38 1.598 6.622 3.46 9.705 5.56 0.022 0.015 0.043 0.03 0.064 0.045 0.487 0.333 0.97 0.671 1.449 1.016 0.045 0.032 0.09 0.065 0.134 0.098 0.454 0.328 0.906 0.662 1.352 1 0.059 0.045 0.118 0.091 0.178 0.136 0.432 0.33 0.861 0.664 1.285 1.003 0.066 0.053 0.131 0.106 0.196 0.159 0.417 0.335 0.83 0.675 1.24 1.02 0.068 0.057 0.136 0.115 0.204 0.173 0.406 0.344 0.809 0.693 1.207 1.045 0.067 0.059 0.133 0.119 0.2 0.177 0.399 0.356 0.795 0.716 1.186 1.081 0.063 0.059 0.126 0.117 0.189 0.176 0.393 0.369 0.784 0.743 1.17 1.121 0.057 0.056 0.114 0.111 0.171 0.167 0.393 0.387 0.782 0.779 1.167 1.175 0.046 0.048 0.093 0.096 0.14 0.144 0.395 0.409 0.785 0.822 1.171 1.24 0.035 0.038 0.071 0.076 0.105 0.114 0.4 0.436 0.796 0.876 1.187 1.321 0.013 0.015 0.026 0.029 0.039 0.044 11.924 13.616 19.219 31.783 19.219 51.711 0 2.182-0.1 4.431-0.306 6.878-0.181 2.144 1.046 4.158 3.035 4.981 4.409 1.822 7.257 6.255 7.257 11.293-0.01 6.67-5.09 12.11-11.34 12.11z" fill="#B74B00"/>
</svg>
